<svg id="artwork" xmlns="http://www.w3.org/2000/svg" viewBox="0 0 135 40">
    <defs>
        <style>.cls-1{fill:#1b1b1b;}.cls-2{fill:#fff;}</style>
    </defs>
    <title>Vector Smart Object1</title>
    <rect width="135" height="40" rx="5" ry="5"/>
    <path class="cls-1" d="M-8.37,10.8A4.2,4.2,0,0,1-4.17,15V45a4.2,4.2,0,0,1-4.2,4.2h-125a4.2,4.2,0,0,1-4.2-4.2V15a4.2,4.2,0,0,1,4.2-4.2h125m0-.8h-125a5,5,0,0,0-5,5V45a5,5,0,0,0,5,5h125a5,5,0,0,0,5-5V15a5,5,0,0,0-5-5h0Z" transform="translate(138.38 -10)"/>
    <path class="cls-2" d="M-112.21,29.89A5.8,5.8,0,0,1-109.45,25a5.94,5.94,0,0,0-4.68-2.53c-2-.21-3.87,1.18-4.88,1.18s-2.56-1.16-4.23-1.12a6.22,6.22,0,0,0-5.24,3.2c-2.27,3.92-.58,9.69,1.59,12.86,1.09,1.55,2.36,3.29,4,3.23s2.23-1,4.19-1,2.51,1,4.21,1,2.84-1.56,3.89-3.13A12.82,12.82,0,0,0-108.79,35,5.6,5.6,0,0,1-112.21,29.89Z" transform="translate(138.38 -10)"/>
    <path class="cls-2" d="M-115.41,20.41a5.71,5.71,0,0,0,1.31-4.09,5.81,5.81,0,0,0-3.76,1.94,5.43,5.43,0,0,0-1.34,3.94A4.8,4.8,0,0,0-115.41,20.41Z" transform="translate(138.38 -10)"/>
    <path class="cls-2" d="M-86.69,35.61H-89l-1.24-3.91h-4.32l-1.19,3.91h-2.21l4.28-13.31H-91Zm-3.89-5.55-1.12-3.47q-0.18-.53-0.67-2.51h0q-0.2.85-.63,2.51l-1.11,3.47h3.57Z" transform="translate(138.38 -10)"/>
    <path class="cls-2" d="M-75.67,30.69A5.45,5.45,0,0,1-77,34.56a3.87,3.87,0,0,1-2.94,1.26,2.94,2.94,0,0,1-2.73-1.36h0v5.05h-2.13V29.17q0-1.54-.08-3.16H-83l0.12,1.52h0a3.55,3.55,0,0,1,3.24-1.72,3.56,3.56,0,0,1,2.83,1.34A5.29,5.29,0,0,1-75.67,30.69Zm-2.17.08a4,4,0,0,0-.63-2.31,2.18,2.18,0,0,0-1.86-.95,2.22,2.22,0,0,0-1.43.52,2.42,2.42,0,0,0-.84,1.37,2.79,2.79,0,0,0-.1.65v1.6a2.57,2.57,0,0,0,.64,1.77,2.13,2.13,0,0,0,1.67.72,2.18,2.18,0,0,0,1.88-.93A4.08,4.08,0,0,0-77.85,30.77Z" transform="translate(138.38 -10)"/>
    <path class="cls-2" d="M-64.64,30.69A5.45,5.45,0,0,1-66,34.56a3.87,3.87,0,0,1-2.94,1.26,2.94,2.94,0,0,1-2.72-1.36h0v5.05H-73.8V29.17q0-1.54-.08-3.16H-72l0.12,1.52h0a3.55,3.55,0,0,1,3.24-1.72,3.57,3.57,0,0,1,2.83,1.34A5.3,5.3,0,0,1-64.64,30.69Zm-2.17.08a4,4,0,0,0-.63-2.31,2.18,2.18,0,0,0-1.86-.95,2.21,2.21,0,0,0-1.43.52,2.42,2.42,0,0,0-.84,1.37,2.87,2.87,0,0,0-.1.65v1.6A2.57,2.57,0,0,0-71,33.43a2.13,2.13,0,0,0,1.67.72,2.18,2.18,0,0,0,1.88-.93A4.09,4.09,0,0,0-66.81,30.77Z" transform="translate(138.38 -10)"/>
    <path class="cls-2" d="M-52.3,31.88a3.55,3.55,0,0,1-1.18,2.76,5.24,5.24,0,0,1-3.62,1.17A6.35,6.35,0,0,1-60.55,35l0.49-1.78A5.85,5.85,0,0,0-57,34a2.91,2.91,0,0,0,1.88-.54,1.77,1.77,0,0,0,.67-1.45A1.85,1.85,0,0,0-55,30.69a5.14,5.14,0,0,0-1.84-1q-3.5-1.3-3.49-3.82a3.38,3.38,0,0,1,1.22-2.69,4.83,4.83,0,0,1,3.26-1,6.46,6.46,0,0,1,3,.63l-0.53,1.74a5.24,5.24,0,0,0-2.55-.61,2.58,2.58,0,0,0-1.76.55,1.58,1.58,0,0,0-.53,1.21,1.62,1.62,0,0,0,.61,1.3,6.92,6.92,0,0,0,1.94,1,6.57,6.57,0,0,1,2.53,1.62A3.38,3.38,0,0,1-52.3,31.88Z" transform="translate(138.38 -10)"/>
    <path class="cls-2" d="M-45.25,27.61H-47.6v4.66q0,1.78,1.24,1.78a3.83,3.83,0,0,0,.95-0.1l0.06,1.62A4.82,4.82,0,0,1-47,35.8,2.55,2.55,0,0,1-49,35a3.78,3.78,0,0,1-.71-2.59V27.61h-1.4V26h1.4V24.25l2.09-.63V26h2.35v1.6h0Z" transform="translate(138.38 -10)"/>
    <path class="cls-2" d="M-34.64,30.73a5.27,5.27,0,0,1-1.26,3.63,4.51,4.51,0,0,1-3.52,1.46,4.29,4.29,0,0,1-3.37-1.4A5.1,5.1,0,0,1-44,30.89a5.21,5.21,0,0,1,1.29-3.65,4.47,4.47,0,0,1,3.48-1.42,4.39,4.39,0,0,1,3.4,1.4A5,5,0,0,1-34.64,30.73Zm-2.21.07a4.32,4.32,0,0,0-.57-2.28,2.11,2.11,0,0,0-1.91-1.15,2.14,2.14,0,0,0-2,1.15,4.38,4.38,0,0,0-.57,2.32,4.29,4.29,0,0,0,.57,2.28,2.15,2.15,0,0,0,1.94,1.15,2.13,2.13,0,0,0,1.91-1.17A4.34,4.34,0,0,0-36.86,30.8Z" transform="translate(138.38 -10)"/>
    <path class="cls-2" d="M-27.71,27.89a3.69,3.69,0,0,0-.67-0.06,2,2,0,0,0-1.74.85,3.19,3.19,0,0,0-.53,1.89v5h-2.13l0-6.57q0-1.66-.08-3H-31l0.08,1.84h0.06a3.29,3.29,0,0,1,1.07-1.52,2.58,2.58,0,0,1,1.54-.51,3.38,3.38,0,0,1,.53,0v2Z" transform="translate(138.38 -10)"/>
    <path class="cls-2" d="M-18.18,30.36a5,5,0,0,1-.08,1h-6.4a2.79,2.79,0,0,0,.93,2.17,3.17,3.17,0,0,0,2.09.67A7.09,7.09,0,0,0-19,33.71l0.33,1.48a8,8,0,0,1-3.22.59,4.67,4.67,0,0,1-3.51-1.31,4.85,4.85,0,0,1-1.27-3.52,5.5,5.5,0,0,1,1.19-3.61,4.09,4.09,0,0,1,3.36-1.54A3.57,3.57,0,0,1-19,27.34,5.19,5.19,0,0,1-18.18,30.36Zm-2-.55a2.89,2.89,0,0,0-.41-1.64,1.86,1.86,0,0,0-1.7-.89,2,2,0,0,0-1.7.87,3.21,3.21,0,0,0-.63,1.66h4.44Z" transform="translate(138.38 -10)"/>
</svg>